<svg width="24" height="24" viewBox="0 0 24 24" fill="none" xmlns="http://www.w3.org/2000/svg">
<g clip-path="url(#clip0_8103_1088)">
<path d="M12 5.625C10.7391 5.625 9.5066 5.99889 8.45824 6.69938C7.40988 7.39988 6.59278 8.39551 6.11027 9.56039C5.62776 10.7253 5.50151 12.0071 5.74749 13.2437C5.99347 14.4803 6.60064 15.6162 7.49219 16.5078C8.38375 17.3994 9.51967 18.0065 10.7563 18.2525C11.9929 18.4985 13.2747 18.3722 14.4396 17.8897C15.6045 17.4072 16.6001 16.5901 17.3006 15.5418C18.0011 14.4934 18.375 13.2609 18.375 12C18.3725 10.31 17.7001 8.68994 16.5051 7.49493C15.3101 6.29993 13.69 5.62748 12 5.625ZM12 16.875C11.0358 16.875 10.0933 16.5891 9.2916 16.0534C8.48991 15.5177 7.86506 14.7564 7.49609 13.8656C7.12711 12.9748 7.03057 11.9946 7.21867 11.0489C7.40678 10.1033 7.87107 9.23464 8.55285 8.55285C9.23464 7.87107 10.1033 7.40678 11.0489 7.21867C11.9946 7.03057 12.9748 7.12711 13.8656 7.49609C14.7564 7.86506 15.5177 8.48991 16.0534 9.2916C16.5891 10.0933 16.875 11.0358 16.875 12C16.875 13.2929 16.3614 14.5329 15.4471 15.4471C14.5329 16.3614 13.2929 16.875 12 16.875ZM11.25 3.375V1.5C11.25 1.30109 11.329 1.11032 11.4697 0.96967C11.6103 0.829018 11.8011 0.75 12 0.75C12.1989 0.75 12.3897 0.829018 12.5303 0.96967C12.671 1.11032 12.75 1.30109 12.75 1.5V3.375C12.75 3.57391 12.671 3.76468 12.5303 3.90533C12.3897 4.04598 12.1989 4.125 12 4.125C11.8011 4.125 11.6103 4.04598 11.4697 3.90533C11.329 3.76468 11.25 3.57391 11.25 3.375ZM4.04063 5.10938C3.95869 5.04213 3.89174 4.95847 3.84408 4.86379C3.79643 4.76911 3.76912 4.6655 3.76392 4.55963C3.75872 4.45376 3.77574 4.34798 3.81389 4.24908C3.85204 4.15019 3.91047 4.06038 3.98542 3.98542C4.06038 3.91047 4.15019 3.85204 4.24908 3.81389C4.34798 3.77574 4.45376 3.75872 4.55963 3.76392C4.6655 3.76912 4.76911 3.79643 4.86379 3.84408C4.95847 3.89174 5.04213 3.95869 5.10938 4.04063L6.43125 5.37188C6.57151 5.51248 6.65028 5.70296 6.65028 5.90156C6.65028 6.10016 6.57151 6.29065 6.43125 6.43125C6.28947 6.56926 6.09942 6.64649 5.90156 6.64649C5.7037 6.64649 5.51365 6.56926 5.37188 6.43125L4.04063 5.10938ZM3.375 12.75H1.5C1.30109 12.75 1.11032 12.671 0.96967 12.5303C0.829018 12.3897 0.75 12.1989 0.75 12C0.75 11.8011 0.829018 11.6103 0.96967 11.4697C1.11032 11.329 1.30109 11.25 1.5 11.25H3.375C3.57391 11.25 3.76468 11.329 3.90533 11.4697C4.04598 11.6103 4.125 11.8011 4.125 12C4.125 12.1989 4.04598 12.3897 3.90533 12.5303C3.76468 12.671 3.57391 12.75 3.375 12.75ZM6.43125 17.5688C6.57151 17.7094 6.65028 17.8998 6.65028 18.0984C6.65028 18.297 6.57151 18.4875 6.43125 18.6281L5.10938 19.9594C4.96541 20.097 4.77416 20.1742 4.575 20.175C4.37621 20.1723 4.18562 20.0954 4.04063 19.9594C3.89979 19.8172 3.82078 19.6251 3.82078 19.425C3.82078 19.2249 3.89979 19.0328 4.04063 18.8906L5.37188 17.5688C5.51248 17.4285 5.70296 17.3497 5.90156 17.3497C6.10016 17.3497 6.29065 17.4285 6.43125 17.5688ZM12.75 20.625V22.5C12.75 22.6989 12.671 22.8897 12.5303 23.0303C12.3897 23.171 12.1989 23.25 12 23.25C11.8011 23.25 11.6103 23.171 11.4697 23.0303C11.329 22.8897 11.25 22.6989 11.25 22.5V20.625C11.25 20.4261 11.329 20.2353 11.4697 20.0947C11.6103 19.954 11.8011 19.875 12 19.875C12.1989 19.875 12.3897 19.954 12.5303 20.0947C12.671 20.2353 12.75 20.4261 12.75 20.625ZM19.9594 18.8906C20.1002 19.0328 20.1792 19.2249 20.1792 19.425C20.1792 19.6251 20.1002 19.8172 19.9594 19.9594C19.8144 20.0954 19.6238 20.1723 19.425 20.175C19.2258 20.1742 19.0346 20.097 18.8906 19.9594L17.5688 18.6281C17.4395 18.4855 17.37 18.2985 17.3748 18.1061C17.3795 17.9136 17.4581 17.7303 17.5942 17.5942C17.7303 17.4581 17.9136 17.3795 18.1061 17.3748C18.2985 17.37 18.4855 17.4395 18.6281 17.5688L19.9594 18.8906ZM23.25 12C23.25 12.1989 23.171 12.3897 23.0303 12.5303C22.8897 12.671 22.6989 12.75 22.5 12.75H20.625C20.4261 12.75 20.2353 12.671 20.0947 12.5303C19.954 12.3897 19.875 12.1989 19.875 12C19.875 11.8011 19.954 11.6103 20.0947 11.4697C20.2353 11.329 20.4261 11.25 20.625 11.25H22.5C22.6989 11.25 22.8897 11.329 23.0303 11.4697C23.171 11.6103 23.25 11.8011 23.25 12ZM17.5688 6.43125C17.4285 6.29065 17.3497 6.10016 17.3497 5.90156C17.3497 5.70296 17.4285 5.51248 17.5688 5.37188L18.8906 4.04063C19.0363 3.92103 19.2213 3.85991 19.4096 3.86916C19.5979 3.8784 19.776 3.95736 19.9093 4.09066C20.0426 4.22396 20.1216 4.40208 20.1308 4.59037C20.1401 4.77866 20.079 4.96365 19.9594 5.10938L18.6281 6.43125C18.4863 6.56926 18.2963 6.64649 18.0984 6.64649C17.9006 6.64649 17.7105 6.56926 17.5688 6.43125Z" fill="black"/>
</g>
<defs>
<clipPath id="clip0_8103_1088">
<rect width="24" height="24" fill="white"/>
</clipPath>
</defs>
</svg>
