<svg width="24" height="24" viewBox="0 0 24 24" fill="none" xmlns="http://www.w3.org/2000/svg">
<path d="M21.0282 14.0907C20.9799 13.9349 20.8826 13.7988 20.7509 13.7025C20.6192 13.6063 20.46 13.555 20.2969 13.5563L20.0907 13.5938C18.7479 13.9644 17.3308 13.9722 15.984 13.6164C14.6371 13.2606 13.4088 12.5539 12.4243 11.5684C11.4397 10.5829 10.7342 9.35391 10.3797 8.00675C10.0252 6.65959 10.0344 5.2425 10.4063 3.90005C10.4247 3.84567 10.4342 3.78869 10.4344 3.7313C10.4433 3.61031 10.4224 3.48899 10.3734 3.37799C10.3245 3.26699 10.249 3.16973 10.1536 3.09473C10.0583 3.01974 9.94594 2.96932 9.82653 2.94791C9.70712 2.92649 9.58428 2.93474 9.4688 2.97192C7.89269 3.4137 6.45971 4.26043 5.3124 5.4279C4.1651 6.59537 3.34346 8.04289 2.92921 9.62646C2.51496 11.21 2.52255 12.8745 2.95122 14.4542C3.37988 16.0339 4.21469 17.4739 5.37259 18.6308C6.53049 19.7878 7.97113 20.6214 9.55121 21.0488C11.1313 21.4762 12.7957 21.4824 14.379 21.0669C15.9622 20.6514 17.409 19.8286 18.5756 18.6803C19.7421 17.5321 20.5877 16.0984 21.0282 14.5219C21.0753 14.382 21.0753 14.2306 21.0282 14.0907ZM12.0001 19.875C10.2038 19.8765 8.46107 19.2638 7.06089 18.1387C5.66071 17.0135 4.68726 15.4435 4.302 13.6891C3.91675 11.9346 4.14285 10.1012 4.9428 8.49294C5.74275 6.88467 7.06847 5.59819 8.70005 4.84692C8.52352 6.26182 8.67237 7.69834 9.13527 9.04697C9.59817 10.3956 10.3629 11.6207 11.3711 12.629C12.3794 13.6372 13.6045 14.4019 14.9531 14.8648C16.3018 15.3277 17.7383 15.4766 19.1532 15.3C18.5189 16.6635 17.5091 17.8181 16.2423 18.6283C14.9754 19.4386 13.5039 19.871 12.0001 19.875Z" fill="black"/>
</svg>
